<?xml version="1.0" encoding="UTF-8" standalone="no"?>
<!-- Created with Inkscape (http://www.inkscape.org/) -->

<svg
   xmlns:dc="http://purl.org/dc/elements/1.1/"
   xmlns:cc="http://creativecommons.org/ns#"
   xmlns:rdf="http://www.w3.org/1999/02/22-rdf-syntax-ns#"
   xmlns:svg="http://www.w3.org/2000/svg"
   xmlns="http://www.w3.org/2000/svg"
   xmlns:sodipodi="http://sodipodi.sourceforge.net/DTD/sodipodi-0.dtd"
   xmlns:inkscape="http://www.inkscape.org/namespaces/inkscape"
   width="744.09448819"
   height="1052.3622047"
   id="svg2"
   version="1.1"
   inkscape:version="0.48.2 r9819"
   sodipodi:docname="silhouettes.svg">
  <defs
     id="defs4" />
  <sodipodi:namedview
     id="base"
     pagecolor="#ffffff"
     bordercolor="#666666"
     borderopacity="1.0"
     inkscape:pageopacity="0.0"
     inkscape:pageshadow="2"
     inkscape:zoom="1.2791057"
     inkscape:cx="368.22602"
     inkscape:cy="807.39447"
     inkscape:document-units="px"
     inkscape:current-layer="layer1"
     showgrid="false"
     inkscape:window-width="1402"
     inkscape:window-height="779"
     inkscape:window-x="0"
     inkscape:window-y="0"
     inkscape:window-maximized="0" />
  <metadata
     id="metadata7">
    <rdf:RDF>
      <cc:Work
         rdf:about="">
        <dc:format>image/svg+xml</dc:format>
        <dc:type
           rdf:resource="http://purl.org/dc/dcmitype/StillImage" />
        <dc:title></dc:title>
      </cc:Work>
    </rdf:RDF>
  </metadata>
  <g
     inkscape:label="Layer 1"
     inkscape:groupmode="layer"
     id="layer1">
    <g
       id="g3129"
       transform="matrix(0.57143917,0,0,0.57143917,37.603157,392.42597)">
      <path
         inkscape:export-ydpi="122.89"
         inkscape:export-xdpi="122.89"
         inkscape:export-filename="/Users/timmorgan/d/woman.large.png"
         inkscape:connector-curvature="0"
         id="rect3785"
         d="m 87.74287,53.995286 0,432.344004 585.88718,0 0,-432.344004 -585.88718,0 z"
         style="fill:#e6e6e6;fill-opacity:1" />
      <path
         inkscape:connector-curvature="0"
         inkscape:export-ydpi="122.89"
         inkscape:export-xdpi="122.89"
         inkscape:export-filename="/Users/timmorgan/d/woman.large.png"
         id="path3015"
         d="m 328.9375,70.526786 c -3.13316,0.03676 -6.37054,0.25446 -9.71875,0.65625 -35.71429,4.28571 -52.6367,23.9925 -54.46875,26 -11.71418,12.836054 0.90625,31.125004 0.90625,31.125004 0,0 1.45434,0.20647 -8.59375,7.15625 -21.40477,14.80466 -21.40625,60 -21.40625,60 0,0 -3.70858,52.23556 -5,58.21875 -1.29142,6.48827 -5.71875,17.5 -5.71875,17.5 0,0 2.93295,-2.82876 6.40625,-6.4375 0.69538,9.77578 -8.5625,26.4375 -8.5625,26.4375 l 9.28125,-5.21875 c 0,0 2.78525,12.27799 -8.34375,22.46875 3.51822,3.1197 8.65049,-0.92245 16.375,-6.5 1.45723,-1.05221 -3.46542,4.65512 -8.78125,13 -7.12798,11.18963 -23.40393,10.79083 -32.09375,11.71875 3.93709,12.0396 39.23584,5.94522 37.4375,10.1875 -2.90014,6.84141 -13.17339,12.62257 -24.125,15.5625 5.21083,2.18231 20.38217,1.83115 31.5,-2.28125 20.55043,-7.60145 -5.3125,17.1875 -5.3125,17.1875 0,0 30.29018,-4.09768 41.71875,-10.65625 10.58636,-6.07524 -0.5,10.96875 -0.5,10.96875 0,0 40.36021,-15.40355 41.40625,-10 2.93052,15.13827 -15.6875,27.125 -15.6875,27.125 0,0 -59.23537,23.00014 -77.15625,31.4375 -19.757,9.30182 -33.35164,43.1562 -38.03125,70.15625 l 394.3125,0 c -1.79336,-11.54826 -7.80841,-40.71223 -25.5625,-68.03125 -12.15899,-14.57488 -9.29911,-12.12946 -27.15625,-27.84375 -17.85714,-15.71428 -53.68732,-17.3351 -74.875,-20.3125 -21.18768,-2.9774 -34.18656,-12.99072 -27.3125,-24.96875 30.10756,0.14379 47.1875,-16.875 47.1875,-16.875 l 10,-10 c 0,0 -7.66662,0.44078 -8.5625,-5 4.9125,-0.8951 15,-3.5625 15,-3.5625 0,0 -11.46866,-1.34234 -14.125,-7.84375 8.70788,-0.44049 31.28125,-17.15625 31.28125,-17.15625 0,0 -22.83929,3.78125 -12.125,-1.21875 10.71428,-5 17.8125,-31.625 17.8125,-31.625 l -6.40625,0 6.125,-4.84375 c 0,0 -24.46047,3.27748 -32.71875,-1.84375 14.21761,-2.59585 29.4375,-15.46875 29.4375,-15.46875 l -12.125,-2.125 5,-1.4375 -6.4375,-1.4375 8.5625,-2.125 c 0,0 -4.78125,1.83036 -24.78125,-15.3125 -20,-17.14286 -49.96134,-76.76855 -84.28125,-105.5 -18.85182,-15.782104 -39.494,-31.636594 -69.78125,-31.281254 z"
         style="fill:#ffffff;fill-opacity:1;stroke:none" />
    </g>
    <g
       id="g3125"
       transform="matrix(0.57144359,0,0,0.57144359,37.602769,422.70393)">
      <path
         inkscape:export-ydpi="14.57158"
         inkscape:export-xdpi="14.57158"
         inkscape:export-filename="/Users/timmorgan/pp/onebody/public/images/man.tn.png"
         inkscape:connector-curvature="0"
         id="path3931"
         d="m 87.74287,553.99529 0,432.344 585.88718,0 0,-432.344 -585.88718,0 z"
         style="fill:#e6e6e6;fill-opacity:1" />
      <path
         inkscape:export-ydpi="14.57158"
         inkscape:export-xdpi="14.57158"
         inkscape:export-filename="/Users/timmorgan/pp/onebody/public/images/man.tn.png"
         sodipodi:nodetypes="ssccssccsccccsccccsccscsccscsss"
         inkscape:connector-curvature="0"
         id="path3824"
         d="m 406.95914,587.05048 c -4.58063,-0.0333 -9.3572,-3.22116 -10.94471,-3.22116 -6.35005,0 -23.14812,-3.29024 -63.69915,32.49261 -28.14917,34.4226 -14.20312,72.33126 -14.20312,72.33126 0,0 -6.49509,5.58003 -11.70591,6.5017 -7.76338,1.37315 -7.95551,16.48004 -7.95551,29.27939 0,12.79934 9.61578,34.3607 12.79079,38.62715 5.43982,3.74261 6.69103,2.53962 11.03972,2.78232 0,0 2.11668,7.44243 0,22.375 -2.11668,14.93258 -7.40625,37.34375 -7.40625,37.34375 l -9.53125,-2.125 -14.8125,11.71875 -7.40625,0 c 0,0 -51.8705,22.40953 -98.4375,45.875 -43.7097,22.02564 -62.46105,96.18713 -64.625,105.3125 l 499.46875,0 c 0.084,-0.1102 0.16655,-0.19828 0.15625,-0.3125 -1.05834,-11.73274 -22.25,-52.75 -22.25,-52.75 0,0 -22.22054,-42.64061 -62.4375,-62.90625 -40.21696,-20.26564 -104.12591,-43.47056 -104.12591,-43.47056 0,0 0.2319,-22.39655 3.71061,-34.69112 3.2919,-2.73544 10.34342,-4.84069 14.75918,-10.04602 5.66226,-6.67471 8.40612,-16.32355 8.40612,-16.32355 0,0 7.55523,-8.72188 14.1875,-23.53125 3.82562,-8.54232 4.20995,-15.3111 4.8125,-19.9375 -0.57118,-4.33299 -5.70193,-5.75721 -5.70193,-5.75721 0,0 2.29269,-14.97784 2.95035,-22.52443 0.52642,-6.04066 2.12196,-11.06145 4.97237,-8.47945 2.01126,-8.78793 2.1479,-5.3117 2.42009,-10.79269 0.59133,-11.90747 6.00514,-25.25213 -20.45338,-59.38372 -19.84389,-25.5987 -40.23646,-28.28703 -53.97836,-28.38702 z"
         style="fill:#ffffff;fill-opacity:1" />
    </g>
    <g
       id="g3236">
      <path
         id="path3110"
         d="m 68.21875,50.46875 0,309.21875 584.59375,0 0,-309.21875 -584.59375,0 z"
         style="fill:#e6e6e6;fill-opacity:1"
         inkscape:connector-curvature="0" />
      <path
         style="fill:#ffffff;fill-opacity:1;stroke:none"
         d="m 155.28347,118.41333 c -1.81801,0.0213 -3.6965,0.14765 -5.63929,0.38079 -20.7232,2.48678 -30.54242,13.92163 -31.60547,15.08648 -6.79714,7.44812 0.52585,18.06027 0.52585,18.06027 0,0 0.84388,0.1198 -4.98651,4.15241 -12.42011,8.59039 -12.42097,34.81497 -12.42097,34.81497 0,0 -2.1519,30.30965 -2.90125,33.78139 -0.74934,3.76482 -3.3183,10.15437 -3.3183,10.15437 0,0 1.70185,-1.64139 3.71723,-3.73536 0.40349,5.67239 -4.96839,15.34035 -4.96839,15.34035 l 5.38544,-3.02818 c 0,0 1.61614,7.1243 -4.84146,13.03748 2.04145,1.8102 5.01945,-0.53525 9.50159,-3.77162 0.84556,-0.61055 -2.01081,2.70113 -5.09532,7.54324 -4.136,6.49278 -13.58011,6.26137 -18.62238,6.7998 2.2845,6.98597 22.76658,3.44971 21.72309,5.91129 -1.6828,3.96972 -7.64385,7.32424 -13.99852,9.03013 3.02358,1.26629 11.82675,1.06252 18.27786,-1.32369 11.92438,-4.41074 -3.08257,9.97303 -3.08257,9.97303 0,0 17.57586,-2.37767 24.20728,-6.18328 6.14273,-3.52515 -0.29013,6.36461 -0.29013,6.36461 0,0 23.41899,-8.9379 24.02596,-5.80249 1.70043,8.78397 -9.10267,15.73926 -9.10267,15.73926 0,0 -34.37129,13.34582 -44.76987,18.2416 -11.46399,5.39737 -19.35227,25.04136 -22.06761,40.70812 l 228.79961,0 c -1.0406,-6.70087 -4.53083,-23.62325 -14.83263,-39.47509 -7.05525,-8.45707 -5.3958,-7.03812 -15.7574,-16.15632 -10.36159,-9.11821 -31.15204,-10.05869 -43.44618,-11.78632 -12.29413,-1.72764 -19.83673,-7.53786 -15.84806,-14.4881 17.4699,0.0834 27.38052,-9.79171 27.38052,-9.79171 l 5.8025,-5.8025 c 0,0 -4.44856,0.25576 -4.96839,-2.90125 2.85048,-0.51938 8.70374,-2.06713 8.70374,-2.06713 0,0 -6.65468,-0.7789 -8.19602,-4.55134 5.05274,-0.25559 18.15093,-9.9549 18.15093,-9.9549 0,0 -13.25249,2.19407 -7.03553,-0.70718 6.21696,-2.90125 10.3357,-18.35039 10.3357,-18.35039 l -3.71723,0 3.55403,-2.81058 c 0,0 -14.19317,1.90176 -18.98504,-1.06984 8.24976,-1.50624 17.0811,-8.97573 17.0811,-8.97573 l -7.03553,-1.23303 2.90125,-0.83411 -3.73536,-0.83411 4.96839,-1.23303 c 0,0 -2.77432,1.06207 -14.37931,-8.88507 -11.60499,-9.94713 -28.99004,-44.5449 -48.90414,-61.21631 -10.93876,-9.15756 -22.91638,-18.35712 -40.49054,-18.15093 z"
         id="path3112"
         inkscape:export-filename="/Users/timmorgan/d/woman.large.png"
         inkscape:export-xdpi="122.89"
         inkscape:export-ydpi="122.89"
         inkscape:connector-curvature="0" />
      <path
         id="path3114"
         d="m 370.625,98.4375 c -5.68918,0.135393 -16.94847,2.28774 -38.4375,21.25 -18.35935,22.45097 -9.25,47.15625 -9.25,47.15625 0,0 -4.22642,3.64887 -7.625,4.25 -5.06341,0.89559 -5.1875,10.74581 -5.1875,19.09375 0,8.34794 6.27296,22.40485 8.34375,25.1875 3.54794,2.44099 4.35121,1.65421 7.1875,1.8125 0,0 1.38053,4.85449 0,14.59375 -1.38053,9.73927 -4.84375,24.375 -4.84375,24.375 l -6.21875,-1.40625 -9.65625,7.65625 -4.8125,0 c 0,0 -33.84699,14.60169 -64.21875,29.90625 -27.35678,13.78528 -39.611,58.49533 -41.8125,67.375 l 325.375,0 c -1.70303,-8.82453 -14.34375,-33.28125 -14.34375,-33.28125 0,0 -14.4886,-27.81367 -40.71875,-41.03125 -26.23015,-13.21758 -67.9375,-28.34375 -67.9375,-28.34375 0,0 0.16863,-14.60628 2.4375,-22.625 2.14703,-1.78409 6.74497,-3.1675 9.625,-6.5625 C 412.22427,223.49039 414,217.1875 414,217.1875 c 0,0 4.92433,-5.68484 9.25,-15.34375 2.49513,-5.57144 2.76326,-9.98259 3.15625,-13 -0.37253,-2.82605 -3.71875,-3.75 -3.71875,-3.75 0,0 1.47731,-9.76549 1.90625,-14.6875 0.34334,-3.93981 1.39092,-7.21527 3.25,-5.53125 1.31178,-5.73163 1.41622,-3.48771 1.59375,-7.0625 0.38568,-7.76624 3.91293,-16.45758 -13.34375,-38.71875 -12.9425,-16.69589 -26.25606,-18.43478 -35.21875,-18.5 -2.98756,-0.0217 -6.0896,-2.125 -7.125,-2.125 -0.77655,0 -1.81211,-0.06249 -3.125,-0.03125 z"
         style="fill:#ffffff;fill-opacity:1"
         inkscape:connector-curvature="0" />
      <path
         id="path3116"
         d="m 553.84375,110.75 c -7.88713,0.0112 -17.67987,2.44834 -28.78125,11.8125 -21.52995,18.16077 -19.90951,27.38728 -21.15625,35.0625 -0.57384,3.53289 0.009,1.33953 0.0937,7.21875 2.17011,-1.25807 2.48805,2.16924 2,6.09375 -0.60972,4.9029 -1.1875,14.75 -1.1875,14.75 0,0 -3.48229,0.22056 -4.4375,2.90625 -0.24663,3.03288 -0.9,7.40499 0.375,13.375 2.21041,10.34988 5.84375,16.9375 5.84375,16.9375 0,0 0.42389,6.53317 3.125,11.5625 2.10649,3.92216 6.30473,6.21266 8.03125,8.40625 0.54203,8.31588 -2.34375,22.65625 -2.34375,22.65625 0,0 -43.92967,6.09048 -72.34375,13.53125 -28.41409,7.44077 -48.40625,31.59375 -48.40625,31.59375 0,0 -19.09993,23.25495 -21.375,30.59375 -0.0222,0.0715 -0.007,0.13695 0.0312,0.21875 l 103.875,22.21875 175.625,0 0,-39.71875 C 630.10131,302.31018 608.5,286.9375 608.5,286.9375 l -4.71875,-1 -7.84375,-9.5 -6.375,0.0625 c 0,0 -0.31143,-15.0311 0.375,-24.84375 0.68643,-9.81264 3.03125,-14.28125 3.03125,-14.28125 2.80669,0.43827 3.45758,1.39517 7.4375,-0.25 2.60685,-2.28814 11.66073,-14.74284 13.40625,-22.90625 1.74552,-8.16341 3.70172,-17.81546 -1.0625,-19.75 -3.19776,-1.29847 -6.59375,-5.75 -6.59375,-5.75 0,0 14.0716,-22.26893 0.8125,-48.0625 -20.98348,-28.35246 -32.13744,-28.54025 -36.1875,-29.40625 -1.01251,-0.21649 -4.51145,1.16597 -7.4375,0.5625 -2.74319,-0.56572 -5.91494,-1.06758 -9.5,-1.0625 z"
         style="fill:#ffffff;fill-opacity:1"
         inkscape:connector-curvature="0" />
      <path
         id="path3120"
         d="M 592.125,270.6875 436.53125,309.34375 C 414.69933,324.13427 403.25,347.9375 403.25,347.9375 c 0,0 -2.49826,5.26496 -5.3125,11.75 l 254.875,0 0,-62.875 C 628.1507,285.98942 606.03125,277.25 606.03125,277.25 l -4.8125,0.1875 -9.09375,-6.75 z"
         style="fill:#ffffff;fill-opacity:1"
         inkscape:connector-curvature="0" />
    </g>
  </g>
</svg>
