<?xml version="1.0" encoding="UTF-8" standalone="no"?>
<!-- Created with Inkscape (http://www.inkscape.org/) -->

<svg
   xmlns:dc="http://purl.org/dc/elements/1.1/"
   xmlns:cc="http://creativecommons.org/ns#"
   xmlns:rdf="http://www.w3.org/1999/02/22-rdf-syntax-ns#"
   xmlns:svg="http://www.w3.org/2000/svg"
   xmlns="http://www.w3.org/2000/svg"
   xmlns:sodipodi="http://sodipodi.sourceforge.net/DTD/sodipodi-0.dtd"
   xmlns:inkscape="http://www.inkscape.org/namespaces/inkscape"
   width="744.09448819"
   height="1052.3622047"
   id="svg2"
   version="1.1"
   inkscape:version="0.48.2 r9819"
   sodipodi:docname="silhouettes.svg">
  <defs
     id="defs4" />
  <sodipodi:namedview
     id="base"
     pagecolor="#ffffff"
     bordercolor="#666666"
     borderopacity="1.0"
     inkscape:pageopacity="0.0"
     inkscape:pageshadow="2"
     inkscape:zoom="0.7373292"
     inkscape:cx="381.10192"
     inkscape:cy="786.57879"
     inkscape:document-units="px"
     inkscape:current-layer="layer1"
     showgrid="false"
     inkscape:window-width="1402"
     inkscape:window-height="779"
     inkscape:window-x="0"
     inkscape:window-y="0"
     inkscape:window-maximized="0" />
  <metadata
     id="metadata7">
    <rdf:RDF>
      <cc:Work
         rdf:about="">
        <dc:format>image/svg+xml</dc:format>
        <dc:type
           rdf:resource="http://purl.org/dc/dcmitype/StillImage" />
        <dc:title></dc:title>
      </cc:Work>
    </rdf:RDF>
  </metadata>
  <g
     inkscape:label="Layer 1"
     inkscape:groupmode="layer"
     id="layer1">
    <path
       style="fill:#e6e6e6;fill-opacity:1"
       d="m 87.74287,553.99529 0,432.344 585.88718,0 0,-432.344 -585.88718,0 z"
       id="path3931"
       inkscape:connector-curvature="0"
       inkscape:export-filename="/Users/timmorgan/pp/onebody/public/images/man.tn.png"
       inkscape:export-xdpi="14.57158"
       inkscape:export-ydpi="14.57158" />
    <path
       style="fill:#e6e6e6;fill-opacity:1"
       d="m 87.74287,53.995286 0,432.344004 585.88718,0 0,-432.344004 -585.88718,0 z"
       id="rect3785"
       inkscape:connector-curvature="0"
       inkscape:export-filename="/Users/timmorgan/d/woman.large.png"
       inkscape:export-xdpi="122.89"
       inkscape:export-ydpi="122.89" />
    <path
       style="fill:#ffffff;fill-opacity:1;stroke:none"
       d="m 328.9375,70.526786 c -3.13316,0.03676 -6.37054,0.25446 -9.71875,0.65625 -35.71429,4.28571 -52.6367,23.9925 -54.46875,26 -11.71418,12.836054 0.90625,31.125004 0.90625,31.125004 0,0 1.45434,0.20647 -8.59375,7.15625 -21.40477,14.80466 -21.40625,60 -21.40625,60 0,0 -3.70858,52.23556 -5,58.21875 -1.29142,6.48827 -5.71875,17.5 -5.71875,17.5 0,0 2.93295,-2.82876 6.40625,-6.4375 0.69538,9.77578 -8.5625,26.4375 -8.5625,26.4375 l 9.28125,-5.21875 c 0,0 2.78525,12.27799 -8.34375,22.46875 3.51822,3.1197 8.65049,-0.92245 16.375,-6.5 1.45723,-1.05221 -3.46542,4.65512 -8.78125,13 -7.12798,11.18963 -23.40393,10.79083 -32.09375,11.71875 3.93709,12.0396 39.23584,5.94522 37.4375,10.1875 -2.90014,6.84141 -13.17339,12.62257 -24.125,15.5625 5.21083,2.18231 20.38217,1.83115 31.5,-2.28125 20.55043,-7.60145 -5.3125,17.1875 -5.3125,17.1875 0,0 30.29018,-4.09768 41.71875,-10.65625 10.58636,-6.07524 -0.5,10.96875 -0.5,10.96875 0,0 40.36021,-15.40355 41.40625,-10 2.93052,15.13827 -15.6875,27.125 -15.6875,27.125 0,0 -59.23537,23.00014 -77.15625,31.4375 -19.757,9.30182 -33.35164,43.1562 -38.03125,70.15625 l 394.3125,0 c -1.79336,-11.54826 -7.80841,-40.71223 -25.5625,-68.03125 -12.15899,-14.57488 -9.29911,-12.12946 -27.15625,-27.84375 -17.85714,-15.71428 -53.68732,-17.3351 -74.875,-20.3125 -21.18768,-2.9774 -34.18656,-12.99072 -27.3125,-24.96875 30.10756,0.14379 47.1875,-16.875 47.1875,-16.875 l 10,-10 c 0,0 -7.66662,0.44078 -8.5625,-5 4.9125,-0.8951 15,-3.5625 15,-3.5625 0,0 -11.46866,-1.34234 -14.125,-7.84375 8.70788,-0.44049 31.28125,-17.15625 31.28125,-17.15625 0,0 -22.83929,3.78125 -12.125,-1.21875 10.71428,-5 17.8125,-31.625 17.8125,-31.625 l -6.40625,0 6.125,-4.84375 c 0,0 -24.46047,3.27748 -32.71875,-1.84375 14.21761,-2.59585 29.4375,-15.46875 29.4375,-15.46875 l -12.125,-2.125 5,-1.4375 -6.4375,-1.4375 8.5625,-2.125 c 0,0 -4.78125,1.83036 -24.78125,-15.3125 -20,-17.14286 -49.96134,-76.76855 -84.28125,-105.5 -18.85182,-15.782104 -39.494,-31.636594 -69.78125,-31.281254 z"
       id="path3015"
       inkscape:export-filename="/Users/timmorgan/d/woman.large.png"
       inkscape:export-xdpi="122.89"
       inkscape:export-ydpi="122.89"
       inkscape:connector-curvature="0" />
    <path
       style="fill:#ffffff;fill-opacity:1"
       d="m 406.95914,587.05048 c -4.58063,-0.0333 -9.3572,-3.22116 -10.94471,-3.22116 -6.35005,0 -23.14812,-3.29024 -63.69915,32.49261 -28.14917,34.4226 -14.20312,72.33126 -14.20312,72.33126 0,0 -6.49509,5.58003 -11.70591,6.5017 -7.76338,1.37315 -7.95551,16.48004 -7.95551,29.27939 0,12.79934 9.61578,34.3607 12.79079,38.62715 5.43982,3.74261 6.69103,2.53962 11.03972,2.78232 0,0 2.11668,7.44243 0,22.375 -2.11668,14.93258 -7.40625,37.34375 -7.40625,37.34375 l -9.53125,-2.125 -14.8125,11.71875 -7.40625,0 c 0,0 -51.8705,22.40953 -98.4375,45.875 -43.7097,22.02564 -62.46105,96.18713 -64.625,105.3125 l 499.46875,0 c 0.084,-0.1102 0.16655,-0.19828 0.15625,-0.3125 -1.05834,-11.73274 -22.25,-52.75 -22.25,-52.75 0,0 -22.22054,-42.64061 -62.4375,-62.90625 -40.21696,-20.26564 -104.12591,-43.47056 -104.12591,-43.47056 0,0 0.2319,-22.39655 3.71061,-34.69112 3.2919,-2.73544 10.34342,-4.84069 14.75918,-10.04602 5.66226,-6.67471 8.40612,-16.32355 8.40612,-16.32355 0,0 7.55523,-8.72188 14.1875,-23.53125 3.82562,-8.54232 4.20995,-15.3111 4.8125,-19.9375 -0.57118,-4.33299 -5.70193,-5.75721 -5.70193,-5.75721 0,0 2.29269,-14.97784 2.95035,-22.52443 0.52642,-6.04066 2.12196,-11.06145 4.97237,-8.47945 2.01126,-8.78793 2.1479,-5.3117 2.42009,-10.79269 0.59133,-11.90747 6.00514,-25.25213 -20.45338,-59.38372 -19.84389,-25.5987 -40.23646,-28.28703 -53.97836,-28.38702 z"
       id="path3824"
       inkscape:connector-curvature="0"
       sodipodi:nodetypes="ssccssccsccccsccccsccscsccscsss"
       inkscape:export-filename="/Users/timmorgan/pp/onebody/public/images/man.tn.png"
       inkscape:export-xdpi="14.57158"
       inkscape:export-ydpi="14.57158" />
  </g>
</svg>
