<?xml version="1.0" encoding="UTF-8" standalone="no"?>
<!-- Created with Inkscape (http://www.inkscape.org/) -->

<svg
   xmlns:dc="http://purl.org/dc/elements/1.1/"
   xmlns:cc="http://creativecommons.org/ns#"
   xmlns:rdf="http://www.w3.org/1999/02/22-rdf-syntax-ns#"
   xmlns:svg="http://www.w3.org/2000/svg"
   xmlns="http://www.w3.org/2000/svg"
   xmlns:sodipodi="http://sodipodi.sourceforge.net/DTD/sodipodi-0.dtd"
   xmlns:inkscape="http://www.inkscape.org/namespaces/inkscape"
   width="744.09448819"
   height="1052.3622047"
   id="svg2"
   version="1.1"
   inkscape:version="0.48.2 r9819"
   sodipodi:docname="silhouettes.svg">
  <defs
     id="defs4" />
  <sodipodi:namedview
     id="base"
     pagecolor="#ffffff"
     bordercolor="#666666"
     borderopacity="1.0"
     inkscape:pageopacity="0.0"
     inkscape:pageshadow="2"
     inkscape:zoom="0.96472987"
     inkscape:cx="370.71259"
     inkscape:cy="898.43756"
     inkscape:document-units="px"
     inkscape:current-layer="layer1"
     showgrid="false"
     inkscape:window-width="1402"
     inkscape:window-height="779"
     inkscape:window-x="13"
     inkscape:window-y="18"
     inkscape:window-maximized="0" />
  <metadata
     id="metadata7">
    <rdf:RDF>
      <cc:Work
         rdf:about="">
        <dc:format>image/svg+xml</dc:format>
        <dc:type
           rdf:resource="http://purl.org/dc/dcmitype/StillImage" />
        <dc:title></dc:title>
      </cc:Work>
    </rdf:RDF>
  </metadata>
  <g
     inkscape:label="Layer 1"
     inkscape:groupmode="layer"
     id="layer1">
    <g
       id="g3129"
       transform="matrix(0.47810735,0,0,0.47810735,25.465657,366.1936)">
      <path
         inkscape:export-ydpi="122.89"
         inkscape:export-xdpi="122.89"
         inkscape:export-filename="/Users/timmorgan/d/woman.large.png"
         inkscape:connector-curvature="0"
         id="rect3785"
         d="m 87.74287,53.995286 0,432.344004 585.88718,0 0,-432.344004 -585.88718,0 z"
         style="fill:#e6e6e6;fill-opacity:1" />
      <path
         inkscape:connector-curvature="0"
         inkscape:export-ydpi="122.89"
         inkscape:export-xdpi="122.89"
         inkscape:export-filename="/Users/timmorgan/d/woman.large.png"
         id="path3015"
         d="m 328.9375,70.526786 c -3.13316,0.03676 -6.37054,0.25446 -9.71875,0.65625 -35.71429,4.28571 -52.6367,23.9925 -54.46875,26 -11.71418,12.836054 0.90625,31.125004 0.90625,31.125004 0,0 1.45434,0.20647 -8.59375,7.15625 -21.40477,14.80466 -21.40625,60 -21.40625,60 0,0 -3.70858,52.23556 -5,58.21875 -1.29142,6.48827 -5.71875,17.5 -5.71875,17.5 0,0 2.93295,-2.82876 6.40625,-6.4375 0.69538,9.77578 -8.5625,26.4375 -8.5625,26.4375 l 9.28125,-5.21875 c 0,0 2.78525,12.27799 -8.34375,22.46875 3.51822,3.1197 8.65049,-0.92245 16.375,-6.5 1.45723,-1.05221 -3.46542,4.65512 -8.78125,13 -7.12798,11.18963 -23.40393,10.79083 -32.09375,11.71875 3.93709,12.0396 39.23584,5.94522 37.4375,10.1875 -2.90014,6.84141 -13.17339,12.62257 -24.125,15.5625 5.21083,2.18231 20.38217,1.83115 31.5,-2.28125 20.55043,-7.60145 -5.3125,17.1875 -5.3125,17.1875 0,0 30.29018,-4.09768 41.71875,-10.65625 10.58636,-6.07524 -0.5,10.96875 -0.5,10.96875 0,0 40.36021,-15.40355 41.40625,-10 2.93052,15.13827 -15.6875,27.125 -15.6875,27.125 0,0 -59.23537,23.00014 -77.15625,31.4375 -19.757,9.30182 -33.35164,43.1562 -38.03125,70.15625 l 394.3125,0 c -1.79336,-11.54826 -7.80841,-40.71223 -25.5625,-68.03125 -12.15899,-14.57488 -9.29911,-12.12946 -27.15625,-27.84375 -17.85714,-15.71428 -53.68732,-17.3351 -74.875,-20.3125 -21.18768,-2.9774 -34.18656,-12.99072 -27.3125,-24.96875 30.10756,0.14379 47.1875,-16.875 47.1875,-16.875 l 10,-10 c 0,0 -7.66662,0.44078 -8.5625,-5 4.9125,-0.8951 15,-3.5625 15,-3.5625 0,0 -11.46866,-1.34234 -14.125,-7.84375 8.70788,-0.44049 31.28125,-17.15625 31.28125,-17.15625 0,0 -22.83929,3.78125 -12.125,-1.21875 10.71428,-5 17.8125,-31.625 17.8125,-31.625 l -6.40625,0 6.125,-4.84375 c 0,0 -24.46047,3.27748 -32.71875,-1.84375 14.21761,-2.59585 29.4375,-15.46875 29.4375,-15.46875 l -12.125,-2.125 5,-1.4375 -6.4375,-1.4375 8.5625,-2.125 c 0,0 -4.78125,1.83036 -24.78125,-15.3125 -20,-17.14286 -49.96134,-76.76855 -84.28125,-105.5 -18.85182,-15.782104 -39.494,-31.636594 -69.78125,-31.281254 z"
         style="fill:#ffffff;fill-opacity:1;stroke:none" />
    </g>
    <g
       id="g3125"
       transform="matrix(0.4767026,0,0,0.4767026,331.27124,126.50888)">
      <path
         inkscape:export-ydpi="14.57158"
         inkscape:export-xdpi="14.57158"
         inkscape:export-filename="/Users/timmorgan/pp/onebody/public/images/man.tn.png"
         inkscape:connector-curvature="0"
         id="path3931"
         d="m 87.74287,553.99529 0,432.344 585.88718,0 0,-432.344 -585.88718,0 z"
         style="fill:#e6e6e6;fill-opacity:1" />
      <path
         inkscape:export-ydpi="14.57158"
         inkscape:export-xdpi="14.57158"
         inkscape:export-filename="/Users/timmorgan/pp/onebody/public/images/man.tn.png"
         sodipodi:nodetypes="ssccssccsccccsccccsccscsccscsss"
         inkscape:connector-curvature="0"
         id="path3824"
         d="m 406.95914,587.05048 c -4.58063,-0.0333 -9.3572,-3.22116 -10.94471,-3.22116 -6.35005,0 -23.14812,-3.29024 -63.69915,32.49261 -28.14917,34.4226 -14.20312,72.33126 -14.20312,72.33126 0,0 -6.49509,5.58003 -11.70591,6.5017 -7.76338,1.37315 -7.95551,16.48004 -7.95551,29.27939 0,12.79934 9.61578,34.3607 12.79079,38.62715 5.43982,3.74261 6.69103,2.53962 11.03972,2.78232 0,0 2.11668,7.44243 0,22.375 -2.11668,14.93258 -7.40625,37.34375 -7.40625,37.34375 l -9.53125,-2.125 -14.8125,11.71875 -7.40625,0 c 0,0 -51.8705,22.40953 -98.4375,45.875 -43.7097,22.02564 -62.46105,96.18713 -64.625,105.3125 l 499.46875,0 c 0.084,-0.1102 0.16655,-0.19828 0.15625,-0.3125 -1.05834,-11.73274 -22.25,-52.75 -22.25,-52.75 0,0 -22.22054,-42.64061 -62.4375,-62.90625 -40.21696,-20.26564 -104.12591,-43.47056 -104.12591,-43.47056 0,0 0.2319,-22.39655 3.71061,-34.69112 3.2919,-2.73544 10.34342,-4.84069 14.75918,-10.04602 5.66226,-6.67471 8.40612,-16.32355 8.40612,-16.32355 0,0 7.55523,-8.72188 14.1875,-23.53125 3.82562,-8.54232 4.20995,-15.3111 4.8125,-19.9375 -0.57118,-4.33299 -5.70193,-5.75721 -5.70193,-5.75721 0,0 2.29269,-14.97784 2.95035,-22.52443 0.52642,-6.04066 2.12196,-11.06145 4.97237,-8.47945 2.01126,-8.78793 2.1479,-5.3117 2.42009,-10.79269 0.59133,-11.90747 6.00514,-25.25213 -20.45338,-59.38372 -19.84389,-25.5987 -40.23646,-28.28703 -53.97836,-28.38702 z"
         style="fill:#ffffff;fill-opacity:1" />
    </g>
    <g
       id="g3236">
      <path
         id="path3110"
         d="m 68.21875,50.46875 0,309.21875 584.59375,0 0,-309.21875 -584.59375,0 z"
         style="fill:#e6e6e6;fill-opacity:1"
         inkscape:connector-curvature="0" />
      <path
         style="fill:#ffffff;fill-opacity:1;stroke:none"
         d="m 155.28347,118.41333 c -1.81801,0.0213 -3.6965,0.14765 -5.63929,0.38079 -20.7232,2.48678 -30.54242,13.92163 -31.60547,15.08648 -6.79714,7.44812 0.52585,18.06027 0.52585,18.06027 0,0 0.84388,0.1198 -4.98651,4.15241 -12.42011,8.59039 -12.42097,34.81497 -12.42097,34.81497 0,0 -2.1519,30.30965 -2.90125,33.78139 -0.74934,3.76482 -3.3183,10.15437 -3.3183,10.15437 0,0 1.70185,-1.64139 3.71723,-3.73536 0.40349,5.67239 -4.96839,15.34035 -4.96839,15.34035 l 5.38544,-3.02818 c 0,0 1.61614,7.1243 -4.84146,13.03748 2.04145,1.8102 5.01945,-0.53525 9.50159,-3.77162 0.84556,-0.61055 -2.01081,2.70113 -5.09532,7.54324 -4.136,6.49278 -13.58011,6.26137 -18.62238,6.7998 2.2845,6.98597 22.76658,3.44971 21.72309,5.91129 -1.6828,3.96972 -7.64385,7.32424 -13.99852,9.03013 3.02358,1.26629 11.82675,1.06252 18.27786,-1.32369 11.92438,-4.41074 -3.08257,9.97303 -3.08257,9.97303 0,0 17.57586,-2.37767 24.20728,-6.18328 6.14273,-3.52515 -0.29013,6.36461 -0.29013,6.36461 0,0 23.41899,-8.9379 24.02596,-5.80249 1.70043,8.78397 -9.10267,15.73926 -9.10267,15.73926 0,0 -34.37129,13.34582 -44.76987,18.2416 -11.46399,5.39737 -19.35227,25.04136 -22.06761,40.70812 l 228.79961,0 c -1.0406,-6.70087 -4.53083,-23.62325 -14.83263,-39.47509 -7.05525,-8.45707 -5.3958,-7.03812 -15.7574,-16.15632 -10.36159,-9.11821 -31.15204,-10.05869 -43.44618,-11.78632 -12.29413,-1.72764 -19.83673,-7.53786 -15.84806,-14.4881 17.4699,0.0834 27.38052,-9.79171 27.38052,-9.79171 l 5.8025,-5.8025 c 0,0 -4.44856,0.25576 -4.96839,-2.90125 2.85048,-0.51938 8.70374,-2.06713 8.70374,-2.06713 0,0 -6.65468,-0.7789 -8.19602,-4.55134 5.05274,-0.25559 18.15093,-9.9549 18.15093,-9.9549 0,0 -13.25249,2.19407 -7.03553,-0.70718 6.21696,-2.90125 10.3357,-18.35039 10.3357,-18.35039 l -3.71723,0 3.55403,-2.81058 c 0,0 -14.19317,1.90176 -18.98504,-1.06984 8.24976,-1.50624 17.0811,-8.97573 17.0811,-8.97573 l -7.03553,-1.23303 2.90125,-0.83411 -3.73536,-0.83411 4.96839,-1.23303 c 0,0 -2.77432,1.06207 -14.37931,-8.88507 -11.60499,-9.94713 -28.99004,-44.5449 -48.90414,-61.21631 -10.93876,-9.15756 -22.91638,-18.35712 -40.49054,-18.15093 z"
         id="path3112"
         inkscape:export-filename="/Users/timmorgan/d/woman.large.png"
         inkscape:export-xdpi="122.89"
         inkscape:export-ydpi="122.89"
         inkscape:connector-curvature="0" />
      <path
         id="path3114"
         d="m 370.625,98.4375 c -5.68918,0.135393 -16.94847,2.28774 -38.4375,21.25 -18.35935,22.45097 -9.25,47.15625 -9.25,47.15625 0,0 -4.22642,3.64887 -7.625,4.25 -5.06341,0.89559 -5.1875,10.74581 -5.1875,19.09375 0,8.34794 6.27296,22.40485 8.34375,25.1875 3.54794,2.44099 4.35121,1.65421 7.1875,1.8125 0,0 1.38053,4.85449 0,14.59375 -1.38053,9.73927 -4.84375,24.375 -4.84375,24.375 l -6.21875,-1.40625 -9.65625,7.65625 -4.8125,0 c 0,0 -33.84699,14.60169 -64.21875,29.90625 -27.35678,13.78528 -39.611,58.49533 -41.8125,67.375 l 325.375,0 c -1.70303,-8.82453 -14.34375,-33.28125 -14.34375,-33.28125 0,0 -14.4886,-27.81367 -40.71875,-41.03125 -26.23015,-13.21758 -67.9375,-28.34375 -67.9375,-28.34375 0,0 0.16863,-14.60628 2.4375,-22.625 2.14703,-1.78409 6.74497,-3.1675 9.625,-6.5625 C 412.22427,223.49039 414,217.1875 414,217.1875 c 0,0 4.92433,-5.68484 9.25,-15.34375 2.49513,-5.57144 2.76326,-9.98259 3.15625,-13 -0.37253,-2.82605 -3.71875,-3.75 -3.71875,-3.75 0,0 1.47731,-9.76549 1.90625,-14.6875 0.34334,-3.93981 1.39092,-7.21527 3.25,-5.53125 1.31178,-5.73163 1.41622,-3.48771 1.59375,-7.0625 0.38568,-7.76624 3.91293,-16.45758 -13.34375,-38.71875 -12.9425,-16.69589 -26.25606,-18.43478 -35.21875,-18.5 -2.98756,-0.0217 -6.0896,-2.125 -7.125,-2.125 -0.77655,0 -1.81211,-0.06249 -3.125,-0.03125 z"
         style="fill:#ffffff;fill-opacity:1"
         inkscape:connector-curvature="0" />
      <path
         id="path3116"
         d="m 553.84375,110.75 c -7.88713,0.0112 -17.67987,2.44834 -28.78125,11.8125 -21.52995,18.16077 -19.90951,27.38728 -21.15625,35.0625 -0.57384,3.53289 0.009,1.33953 0.0937,7.21875 2.17011,-1.25807 2.48805,2.16924 2,6.09375 -0.60972,4.9029 -1.1875,14.75 -1.1875,14.75 0,0 -3.48229,0.22056 -4.4375,2.90625 -0.24663,3.03288 -0.9,7.40499 0.375,13.375 2.21041,10.34988 5.84375,16.9375 5.84375,16.9375 0,0 0.42389,6.53317 3.125,11.5625 2.10649,3.92216 6.30473,6.21266 8.03125,8.40625 0.54203,8.31588 -2.34375,22.65625 -2.34375,22.65625 0,0 -43.92967,6.09048 -72.34375,13.53125 -28.41409,7.44077 -48.40625,31.59375 -48.40625,31.59375 0,0 -19.09993,23.25495 -21.375,30.59375 -0.0222,0.0715 -0.007,0.13695 0.0312,0.21875 l 103.875,22.21875 175.625,0 0,-39.71875 C 630.10131,302.31018 608.5,286.9375 608.5,286.9375 l -4.71875,-1 -7.84375,-9.5 -6.375,0.0625 c 0,0 -0.31143,-15.0311 0.375,-24.84375 0.68643,-9.81264 3.03125,-14.28125 3.03125,-14.28125 2.80669,0.43827 3.45758,1.39517 7.4375,-0.25 2.60685,-2.28814 11.66073,-14.74284 13.40625,-22.90625 1.74552,-8.16341 3.70172,-17.81546 -1.0625,-19.75 -3.19776,-1.29847 -6.59375,-5.75 -6.59375,-5.75 0,0 14.0716,-22.26893 0.8125,-48.0625 -20.98348,-28.35246 -32.13744,-28.54025 -36.1875,-29.40625 -1.01251,-0.21649 -4.51145,1.16597 -7.4375,0.5625 -2.74319,-0.56572 -5.91494,-1.06758 -9.5,-1.0625 z"
         style="fill:#ffffff;fill-opacity:1"
         inkscape:connector-curvature="0" />
      <path
         id="path3120"
         d="M 592.125,270.6875 436.53125,309.34375 C 414.69933,324.13427 403.25,347.9375 403.25,347.9375 c 0,0 -2.49826,5.26496 -5.3125,11.75 l 254.875,0 0,-62.875 C 628.1507,285.98942 606.03125,277.25 606.03125,277.25 l -4.8125,0.1875 -9.09375,-6.75 z"
         style="fill:#ffffff;fill-opacity:1"
         inkscape:connector-curvature="0" />
    </g>
    <g
       id="g3519"
       inkscape:export-filename="/Users/timmorgan/pp/onebody/public/images/family.tn.png"
       inkscape:export-xdpi="10.78"
       inkscape:export-ydpi="10.78">
      <path
         inkscape:connector-curvature="0"
         style="fill:#e6e6e6;fill-opacity:1"
         d="m 68.21875,650.46875 0,309.21875 584.59375,0 0,-309.21875 -584.59375,0 z"
         id="path3513" />
      <path
         id="path3515"
         d="M 210.625 698.4375 C 204.93582 698.57289 193.67653 700.72524 172.1875 719.6875 C 153.82815 742.13847 162.9375 766.84375 162.9375 766.84375 C 162.9375 766.84375 158.71108 770.49262 155.3125 771.09375 C 150.24909 771.98934 150.125 781.83956 150.125 790.1875 C 150.125 798.53544 156.39796 812.59235 158.46875 815.375 C 162.01669 817.81599 162.81996 817.02921 165.65625 817.1875 C 165.65625 817.1875 167.03678 822.04199 165.65625 831.78125 C 164.27572 841.52052 160.8125 856.15625 160.8125 856.15625 L 154.59375 854.75 L 144.9375 862.40625 L 140.125 862.40625 C 140.125 862.40625 106.27801 877.00794 75.90625 892.3125 C 73.199069 893.67667 70.635034 895.34485 68.21875 897.25 L 68.21875 959.6875 L 359.46875 959.6875 C 357.76572 950.86297 345.125 926.40625 345.125 926.40625 C 345.125 926.40625 330.6364 898.59258 304.40625 885.375 C 278.1761 872.15742 236.46875 857.03125 236.46875 857.03125 C 236.46875 857.03125 236.63738 842.42497 238.90625 834.40625 C 241.05328 832.62216 245.65122 831.23875 248.53125 827.84375 C 252.22427 823.49039 254 817.1875 254 817.1875 C 254 817.1875 258.92433 811.50266 263.25 801.84375 C 265.74513 796.27231 266.01326 791.86116 266.40625 788.84375 C 266.03372 786.0177 262.6875 785.09375 262.6875 785.09375 C 262.6875 785.09375 264.16481 775.32826 264.59375 770.40625 C 264.93709 766.46644 265.98467 763.19098 267.84375 764.875 C 269.15553 759.14337 269.25997 761.38729 269.4375 757.8125 C 269.82318 750.04626 273.35043 741.35492 256.09375 719.09375 C 243.15125 702.39786 229.83769 700.65897 220.875 700.59375 C 217.88744 700.57205 214.7854 698.46875 213.75 698.46875 C 212.97345 698.46875 211.93789 698.4062 210.625 698.4375 z "
         style="fill:#ffffff;fill-opacity:1" />
      <path
         id="path3480"
         d="M 535.28125 718.40625 C 533.46324 718.42755 531.59904 718.54811 529.65625 718.78125 C 508.93305 721.26803 499.0943 732.71015 498.03125 733.875 C 491.23411 741.32312 498.5625 751.9375 498.5625 751.9375 C 498.5625 751.9375 499.39289 752.06114 493.5625 756.09375 C 481.14239 764.68414 481.15625 790.90625 481.15625 790.90625 C 481.15625 790.90625 478.99935 821.21576 478.25 824.6875 C 477.50066 828.45232 474.9375 834.84375 474.9375 834.84375 C 474.9375 834.84375 476.64087 833.18772 478.65625 831.09375 C 479.05974 836.76614 473.6875 846.4375 473.6875 846.4375 L 479.0625 843.40625 C 479.0625 843.40625 480.67635 850.55557 474.21875 856.46875 C 476.2602 858.27895 479.23661 855.92387 483.71875 852.6875 C 484.56431 852.07695 481.70951 855.37664 478.625 860.21875 C 474.489 866.71153 465.04227 866.49282 460 867.03125 C 462.2845 874.01722 482.79349 870.47592 481.75 872.9375 C 480.0672 876.90722 474.10467 880.26286 467.75 881.96875 C 470.77358 883.23504 479.58014 883.04246 486.03125 880.65625 C 497.95563 876.24551 482.9375 890.625 482.9375 890.625 C 482.9375 890.625 500.52483 888.24311 507.15625 884.4375 C 513.29898 880.91235 506.84375 890.8125 506.84375 890.8125 C 506.84375 890.8125 530.26803 881.86459 530.875 885 C 532.57543 893.78397 521.78125 900.75 521.78125 900.75 C 521.78125 900.75 487.39858 914.07297 477 918.96875 C 465.53601 924.36612 457.65284 944.02074 454.9375 959.6875 L 652.8125 959.6875 L 652.8125 903.78125 C 642.34403 894.9304 621.85124 893.99056 609.6875 892.28125 C 597.39337 890.55361 589.85508 884.73149 593.84375 877.78125 C 611.31365 877.86465 621.21875 868 621.21875 868 L 627.03125 862.1875 C 627.03125 862.1875 622.58233 862.43826 622.0625 859.28125 C 624.91298 858.76187 630.78125 857.21875 630.78125 857.21875 C 630.78125 857.21875 624.10384 856.42869 622.5625 852.65625 C 627.61524 852.40066 640.71875 842.71875 640.71875 842.71875 C 640.71875 842.71875 627.47054 844.90125 633.6875 842 C 639.90446 839.09875 644.03125 823.65625 644.03125 823.65625 L 640.3125 823.65625 L 643.875 820.84375 C 643.875 820.84375 629.66687 822.75285 624.875 819.78125 C 633.12476 818.27501 641.96875 810.8125 641.96875 810.8125 L 634.9375 809.5625 L 637.8125 808.71875 L 634.09375 807.90625 L 638.90625 806.6875 C 638.21657 806.75479 634.84187 806.485 624.6875 797.78125 C 613.08251 787.83412 595.69535 753.23391 575.78125 736.5625 C 564.84249 727.40494 552.85541 718.20006 535.28125 718.40625 z "
         style="fill:#ffffff;fill-opacity:1" />
      <path
         sodipodi:nodetypes="cccccccccccccccccccccccccccccsscsccccsccccccccccsccccccccccccccccccccccccsccccscccscccccccccccccccc"
         inkscape:connector-curvature="0"
         id="path3059"
         d="m 376.125,789.03125 c -6.85519,-0.0501 -13.94468,2.49213 -22.4375,7.9375 -7.33788,4.70573 -12.00787,10.98978 -14.875,16.5625 -0.99942,-1.04171 -2.03886,-2.04052 -3.09375,-2.875 -3.62333,-2.86009 -4.69183,-9.25675 -8.4375,-12.625 -5.62187,-5.05264 -5.46526,-6.23903 -9.09375,-5.46875 l -3.84375,-0.625 c -2.17707,0.46221 -4.00033,0.87284 -7.5,2.09375 -3.3647,1.17576 -6.1875,3.25 -6.1875,3.25 l 4.96875,2.78125 c 0,0 -3.6656,-1.08504 -7.09375,2.40625 -3.4259,3.49515 -4.625,7.96875 -4.625,7.96875 l -1.15625,8.78125 c 0.11421,2.46223 3.96427,-6.12117 5.1875,-4.40625 0.70385,0.98508 -2.50309,7.48748 0.15625,13.59375 1.48811,3.41377 4.36355,8.16965 5.15625,12.15625 1.93496,9.71779 -0.41621,15.44471 8.375,22.375 0,0 -2.86114,-4.36947 -2.6875,-6.5 0.0917,-1.11491 4.9934,4.47645 4.46875,2.5625 -0.2354,-0.8643 -4.20825,-6.05389 -3.6875,-7.59375 0.25242,-0.75261 -0.8784,-0.60602 3.96875,4.65625 0.48995,0.53423 -0.29327,-1.98318 -0.1875,-4.03125 0.14595,-2.81129 1.20707,-5.60462 3.03125,-7 l 5.15625,-3.90625 c 0,0 1.54273,0.14009 4.125,-7.9375 1.26893,-3.96737 5.51878,-7.50358 9.46875,-10.09375 -1.17175,5.55677 -0.21875,9.65625 -0.21875,9.65625 0,0 -2.07307,-3.13839 -4.00485,2.12985 -1.93301,5.26854 5.13494,15.65897 6.60167,20.64224 0.74896,2.1538 1.81702,2.38604 2.35874,1.51415 0.56758,-0.91351 0.60803,-2.96308 1.37775,-1.86542 3.49795,4.98825 4.85177,14.37956 4.85177,14.37956 0,0 1.58461,8.39437 2.25242,11.16837 0.66783,2.77401 0,6.40625 0,6.40625 0,0 -13.79671,1.67719 -22.34375,0.53125 -8.54437,-1.14218 -7.43616,2.36567 -14.53125,8.34375 -7.09835,5.97885 -17.65625,10.84375 -17.65625,10.84375 0,0 9.11576,23.25732 9.84375,26.28125 0.72899,3.02807 0.4375,4.09375 0.4375,4.09375 l -7.59375,22.46875 30.65625,0 c 1.09378,-3.1134 2.15089,-5.8002 3.21875,-7.65625 3.38819,-5.88327 3.125,-6.6875 3.125,-6.6875 0,0 1.61581,5.97541 3.71875,14.34375 l 89.15625,0 3.71875,-0.3125 c 0.36231,0.0767 0.72694,0.192 1.09375,0.3125 l 26.0625,0 c -0.69195,-6.70443 -2.2261,-18.25523 -5.375,-29.0625 -4.58699,-15.74291 -12.79363,-29.51313 -16.21875,-32.34375 -6.99401,-5.7854 -36,-9.96875 -36,-9.96875 l 2.53125,-14.5 8.625,-12.46875 c 1.82443,-2.23269 9.55178,-6.57064 6.40625,-10.3125 0,0 1.75809,-4.7358 2.84375,-12.28125 0.84625,1.04773 0.0466,6.23938 0.65625,10.4375 0.60979,4.19029 1.24119,6.5025 1.84375,8.65625 0.6765,0.83317 4.5,6.90625 4.5,6.90625 l -0.625,-6.84375 c 0,0 3.53705,9.35685 7.3125,12.3125 3.7732,2.9518 2.69546,4.78294 5.03125,6.75 2.33951,1.96615 -3.03005,7.843 -4.46875,10.71875 5.41152,-2.772 10.84645,-8.57155 11.78125,-9.5625 3.15794,-2.67711 5.02763,-4.13366 4.28125,-12.03125 -0.23087,-2.44736 -4.68622,-7.71775 -4.15625,-7.625 0.97038,0.16298 6.28125,-0.25 6.28125,-0.25 -3.18772,-0.61553 -8.22718,-7.34975 -9.40625,-8.875 1.30279,1.15848 6.28125,2.71875 6.28125,2.71875 -6.85381,-2.51422 7.45695,-20.37858 -8.65625,-22.59375 -6.41625,-0.88335 -14.831,0.56402 -19.6875,1.8125 0.0237,-0.64467 0.0944,-1.34795 0.0937,-2 -0.0344,-13.35688 -5.06822,-25.14966 -18.21875,-31.3125 -10.52415,-4.93995 -11.0221,-5.68392 -20.125,-8.03125 -2.27504,-0.5859 -4.52744,-0.88957 -6.8125,-0.90625 z m 46.59375,68.8125 c -0.16651,-0.20507 -0.20125,-0.17939 0.125,0.4375 -0.0394,-0.14098 -0.0854,-0.29577 -0.125,-0.4375 z m 20.25,-8.875 c 0.0165,0.009 0.10291,0.16337 0.21875,0.3125 -0.0802,-0.0776 -0.14506,-0.14579 -0.1875,-0.21875 -0.0424,-0.073 -0.0427,-0.10011 -0.0312,-0.0937 z m 91.375,51.9375 c -0.81816,-0.0372 -1.63042,0.11433 -2.53125,0.375 -3.60333,1.04265 -8.78093,4.97749 -22.21875,14.8125 -7.86529,5.75801 -16.0055,11.0517 -22.9375,15.4375 L 527.25,921.75 c 1.66323,-1.50885 3.06304,-2.48205 4.40625,-2.71875 0.97705,-0.17105 2.51516,0.10685 4.34375,0.625 l 5.40625,-1.3125 -3.9375,-16.46875 c -0.7127,-0.37859 -1.45037,-0.72153 -2.3125,-0.875 -0.27829,-0.0495 -0.53978,-0.0814 -0.8125,-0.0937 z M 276,947.96875 l 2.8125,11.71875 12.0625,0 c -3.77084,-2.82865 -9.22893,-7.02955 -14.875,-11.71875 z"
         style="fill:#ffffff;fill-opacity:1" />
    </g>
  </g>
</svg>
